<?xml version="1.0" encoding="iso-8859-1"?>
<!-- Generator: Adobe Illustrator 19.0.0, SVG Export Plug-In . SVG Version: 6.00 Build 0)  -->
<svg version="1.1" id="Layer_1" xmlns="http://www.w3.org/2000/svg" xmlns:xlink="http://www.w3.org/1999/xlink" x="0px" y="0px"
	 viewBox="0 0 511.999 511.999" style="enable-background:new 0 0 511.999 511.999;" xml:space="preserve">
<g>
	<g>
		<path fill="currentColor" d="M217.458,21.456c-105.666,0-196.75,74.019-216.579,176.005c-5.846,30.12,18.214,58.537,49.659,58.537h64.077
			c0.289-1.409,0.478-2.823,0.841-4.226c24.356-94.618,114.228-163.304,213.688-163.304c15.168,0,30.061,1.778,44.587,4.824
			C335.167,47.571,279.79,21.456,217.458,21.456z"/>
	</g>
</g>
<g>
	<g>
		<path d="M217.644,413.524l5.705-57.006h-26.592c-23.068,0-44.599-9.259-60.365-25.641l-9.909,65.507
			c-2.989,23.826,4.417,47.821,20.309,65.824c15.892,18.007,38.786,28.336,62.802,28.336h15.717c5.466,0,10.856-0.603,16.134-1.642
			C223.62,468.109,214.908,440.837,217.644,413.524z"/>
	</g>
</g>
<g>
	<g>
		<path d="M407.294,416.861l-6.032-60.342H257.026l-6.038,60.348c-1.886,18.804,4.308,37.624,16.993,51.633
			c12.685,14.009,30.789,22.043,49.68,22.043h22.96c18.891,0,36.996-8.032,49.681-22.043
			C402.985,454.489,409.18,435.669,407.294,416.861z"/>
	</g>
</g>
<g>
	<g>
		<path d="M510.397,260.149c-20.636-80.063-96.865-138.175-181.251-138.175c-84.397,0-160.637,58.112-181.251,138.175
			c-8.206,31.756,15.946,62.862,48.863,62.862c155.411,0,196.088,0,205.122,0c1.738,0,2.331,0,2.316,0c4.987,0,19.512,0,57.338,0
			C494.474,323.011,518.566,291.879,510.397,260.149z"/>
	</g>
</g>
</svg>
